<?xml version="1.0" standalone="no"?>
<!DOCTYPE svg PUBLIC "-//W3C//DTD SVG 1.1//EN" "http://www.w3.org/Graphics/SVG/1.1/DTD/svg11.dtd" >
<svg xmlns="http://www.w3.org/2000/svg">
<metadata>
Created by FontForge 20120731 at Mon Jun  6 15:30:07 2016
 By admin
</metadata>
<defs>
<font id="iconfont" horiz-adv-x="1024" >
  <font-face 
    font-family="iconfont"
    font-weight="500"
    font-stretch="normal"
    units-per-em="1024"
    panose-1="2 0 6 3 0 0 0 0 0 0"
    ascent="896"
    descent="-128"
    x-height="792"
    bbox="0 -224 1520 884"
    underline-thickness="50"
    underline-position="-100"
    unicode-range="U+0078-F001F"
  />
<missing-glyph horiz-adv-x="374" 
d="M34 0v682h272v-682h-272zM68 34h204v614h-204v-614z" />
    <glyph glyph-name=".notdef" horiz-adv-x="374" 
d="M34 0v682h272v-682h-272zM68 34h204v614h-204v-614z" />
    <glyph glyph-name=".null" horiz-adv-x="0" 
 />
    <glyph glyph-name="nonmarkingreturn" horiz-adv-x="341" 
 />
    <glyph glyph-name="x" unicode="x" horiz-adv-x="1001" 
d="M281 543q-27 -1 -53 -1h-83q-18 0 -36.5 -6t-32.5 -18.5t-23 -32t-9 -45.5v-76h912v41q0 16 -0.5 30t-0.5 18q0 13 -5 29t-17 29.5t-31.5 22.5t-49.5 9h-133v-97h-438v97zM955 310v-52q0 -23 0.5 -52t0.5 -58t-10.5 -47.5t-26 -30t-33 -16t-31.5 -4.5q-14 -1 -29.5 -0.5
t-29.5 0.5h-32l-45 128h-439l-44 -128h-29h-34q-20 0 -45 1q-25 0 -41 9.5t-25.5 23t-13.5 29.5t-4 30v167h911zM163 247q-12 0 -21 -8.5t-9 -21.5t9 -21.5t21 -8.5q13 0 22 8.5t9 21.5t-9 21.5t-22 8.5zM316 123q-8 -26 -14 -48q-5 -19 -10.5 -37t-7.5 -25t-3 -15t1 -14.5
t9.5 -10.5t21.5 -4h37h67h81h80h64h36q23 0 34 12t2 38q-5 13 -9.5 30.5t-9.5 34.5q-5 19 -11 39h-368zM336 498v228q0 11 2.5 23t10 21.5t20.5 15.5t34 6h188q31 0 51.5 -14.5t20.5 -52.5v-227h-327z" />
    <glyph glyph-name="uniE600" unicode="&#xe600;" horiz-adv-x="1317" 
d="M748 203l-344 591l-100 -58l300 -516zM392 745l285 -497l-52 7l-271 468zM616 792l-62 -108l30 -18l44 77l433 -256l-366 -635l-432 256l183 317l-31 18l-201 -348l494 -285l402 697z" />
    <glyph glyph-name="uniE602" unicode="&#xe602;" 
d="M870 513h-719q-10 0 -17 -7t-7 -17t7 -17t17 -7h93v-361q0 -10 7 -17t17 -7t16.5 7t6.5 17v361h218v-289q0 -10 8 -17.5t18 -7.5h214v-47q0 -10 7 -17t17 -7t17 7t7 17v62q1 5 1 9.5t-1 8.5v281h73q10 0 17 7t7 17t-7 17t-17 7zM749 199h-193v266h193v-266zM607 369h96
q9 0 16 7t7 17t-7 16.5t-16 6.5h-96q-10 0 -17 -6.5t-7 -16.5t7 -17t17 -7zM703 321h-96q-10 0 -17 -7t-7 -17t7 -17.5t17 -7.5h96q9 0 16 7.5t7 17.5t-7 17t-16 7z" />
    <glyph glyph-name="uniE603" unicode="&#xe603;" 
d="M637 400h-87l62 61q11 11 -0.5 22t-22.5 0l-61 -61v87q0 6 -4.5 11t-11 5t-11 -5t-4.5 -11v-87l-62 61q-11 12 -22 0.5t0 -22.5l61 -61h-87q-6 0 -10.5 -4.5t-4.5 -11t4.5 -11.5t10.5 -5h87l-61 -61q-11 -11 0 -22q4 -5 10.5 -5t11.5 5l62 61v-87q0 -6 4.5 -11t11 -5
t11 5t4.5 11v87l61 -61q5 -5 11 -5q7 0 12 5q11 11 0 22l-62 61h87q7 0 11.5 5t4.5 11t-4.5 11t-11.5 5z" />
    <glyph glyph-name="uniE604" unicode="&#xe604;" 
d="M530 238l-228 253h420zM530 238z" />
    <glyph glyph-name="uniE605" unicode="&#xe605;" 
d="M959 -142h-894v887h894v-887zM147 -61h731v725h-731v-725zM226 341h569v-82h-569v82z" />
    <glyph glyph-name="uniE606" unicode="&#xe606;" horiz-adv-x="1521" 
d="M19 257h917q6 0 6 6v588q0 6 -6 6h-917q-7 0 -7 -6v-588q-1 -2 1 -4t6 -2zM1250.5 198q-58.5 0 -100 -41.5t-41.5 -100t41.5 -100t100 -41.5t100 41.5t41.5 100t-41.5 100t-100 41.5zM1251 -12q-28 0 -48.5 20.5t-20.5 48.5t20.5 48t48 20t48 -20t20.5 -48
q-1 -29 -21 -49t-47 -20zM307 193q-58 0 -99.5 -41.5t-41.5 -99.5t41.5 -99.5t99.5 -41.5t99.5 41.5t41.5 99.5q2 58 -39.5 99.5t-101.5 41.5zM307 -16q-28 0 -48 20t-20 48t20 48t48 20t48 -20t20 -48t-20 -48t-48 -20zM223 209q4 1 4 7q-3 5 -7 5h-214q-6 0 -6 -8v-87
q0 -6 6 -6h140q4 0 6 5q22 53 71 84zM1514 221h-173q-7 0 -7 -5q-2 -5 3 -7q40 -25 62 -63.5t22 -84.5q0 -12 -1 -20q0 -3 1.5 -4.5t4.5 -1.5h88q6 0 6 6v172q0 8 -6 8zM1159 202q6 3 6 11q0 6 -4 10t-10 4h-745q-9 0 -12 -9q-2 -10 6 -16q38 -23 59.5 -60.5t21.5 -81.5
q0 -13 -2 -20q0 -8 4 -11q4 -5 9 -5h575q7 0 10 5q3 3 3 11q-2 7 -2 20q1 44 22.5 81.5t58.5 60.5zM1299 753h-246q-33 0 -52.5 -15t-19.5 -42v-433q0 -6 6 -6h527q6 0 6 6v127q0 28 -20.5 87.5t-51.5 121t-72.5 108t-76.5 46.5zM1088 409v240h184q26 0 57 -41t52.5 -98
t22.5 -101h-316zM1088 409z" />
    <glyph glyph-name="uniE607" unicode="&#xe607;" horiz-adv-x="1073" 
d="M539.5 -91q-94.5 0 -161.5 5.5t-99 12.5t-49.5 18t-20 16.5t-2.5 14.5v369l-36 -19l-159 253l309 166h109v-29q0 -43 29.5 -74t71 -31t71 31t29.5 74v29h127l307 -165l-132 -252l-61 23v-375q0 -9 -2.5 -14.5t-20 -16.5t-49.5 -18t-99 -12.5t-161.5 -5.5zM264 -11
q26 -9 99 -16t176.5 -7t176.5 7t99 16v444l91 -34l83 158l-245 131h-59q-10 -57 -53.5 -95t-101 -38t-101.5 38t-53 95h-41l-243 -130l99 -158l73 39v-450z" />
    <glyph glyph-name="uniE608" unicode="&#xe608;" 
d="M354 677q-19 2 -46 -6.5t-49 -29.5q-40 -40 -41 -97q0 -7 5 -12.5t12 -5.5h1q7 0 12 5t5 12q1 43 31 73q15 15 34.5 21.5t31.5 4.5q7 -1 12.5 3.5t6.5 12t-3.5 13t-11.5 6.5zM798 781q24 -10 45 -24q22 -14 40 -32l2 -2v0q36 -36 55.5 -83.5t19.5 -100t-20 -100.5
q-17 -43 -49 -77v-1l-6 -6l-2 -1v-1l-1 -1l-308 -294q-6 -6 -13 -11h-1v-2l-15 -5q-7 -2 -15 -3.5t-16 -1.5t-17 2l-12 2h-1l-3 1q-9 3 -17 7q-9 5 -15 11l-4 4l-303 290v1l-1 1l-1 1l-7 6v1q-31 34 -49 77q-19 48 -19 100t19 100q18 44 49 78l7 6l1 2l6 6h1q15 15 33 26
q21 14 45 23.5t48 14.5q25 5 51 5q23 0 48 -4q23 -5 46 -13.5t43 -20.5q20 -13 39 -28l6 -6l5 -4l3 -3q0 5 5 9v0l2 2q18 17 38 29.5t42.5 21t46.5 13.5q25 4 49 4q25 0 50.5 -5t49.5 -14zM820 721q-18 12 -38 20t-41.5 12t-42.5 4t-41 -3.5t-39 -10.5q-18 -7 -35 -17.5
t-31 -24.5h-1l-3 -3v0q-27 -22 -36 -22q-8 0 -17 7l-10 8l-6 5h1l-6 5h-1q-15 14 -33 24.5t-36.5 17.5t-38.5 11t-40 4q-21 0 -42 -4.5t-40.5 -12.5t-37.5 -19q-18 -12 -33 -27l-2 -2q-30 -30 -46 -70t-16 -84t16 -84t46 -70l2 -1l307 -295l1 -1v0v0v0q2 -2 5 -4q3 -1 8 -3
h1q4 -2 9 -2.5t11 -0.5q5 0 9 1q5 0 9 1.5t7 3.5l6 4l308 296l1 1q30 30 47 70q16 40 16 84t-16 84q-17 40 -47 70v0l-1 2q-15 15 -33 26v0z" />
    <glyph glyph-name="uniE609" unicode="&#xe609;" 
d="M825 512q-9 123 -99 207t-214 84t-214 -84t-100 -207q-45 -9 -75 -45t-30 -83v-52q0 -55 38.5 -93t92.5 -38h78v131v52v131h-51q10 100 85 168t176 68t176 -68t85 -168h-51v-131v-52v-131h51q-18 -82 -84 -135t-151 -53q-26 0 -52 6v-49q26 -5 52 -5q106 0 186 67.5
t98 169.5q4 26 4 51h-13h-35h-4v87v35v88h39q27 0 46.5 -26t19.5 -62v-35q0 -36 -19.5 -61.5t-46.5 -25.5h13q0 -25 -4 -51q47 8 78 44.5t31 85.5v52q0 47 -30 83t-76 45zM211 463h39v-88v-35v-87h-39q-27 0 -46.5 25.5t-19.5 61.5v35q0 36 19.5 62t46.5 26zM211 463z" />
    <glyph glyph-name="uniE60B" unicode="&#xe60b;" 
d="M493 71q6 34 33.5 47t55 0t33.5 -47h29h31q19 0 23 5.5t4 27.5v179q0 8 1 22q0 34 -5 40t-37 5h-12h-180q-20 0 -24.5 -5.5t-4.5 -25.5v-180q0 -55 2 -58q5 -10 21 -10h13h17zM737 71q7 31 30 44.5t48 6.5t38 -30q2 -4 4 -11t3 -10q7 1 12 -1t8.5 1t6 2.5t4 4t2.5 5.5
t1.5 6.5t0.5 8.5v8v11v17v24q0 8 -1 19t-3 16q-5 11 -41 60q-9 11 -9 12q-1 0 -3 3t-3 4t-3.5 3t-4.5 3t-5 1.5t-6 0.5h-81q-15 -2 -15 -25v-161q0 -23 17 -23zM772 176v69q22 2 41 0q3 0 5 -1t4 -3.5t3.5 -4.5t4 -5.5t4 -5t8 -10.5t11 -15t8.5 -13.5t4 -10.5q-68 -1 -93 0z
M545 101q-16 -4 -25.5 -17.5t-4.5 -30.5q3 -15 16.5 -24.5t31.5 -5.5q15 3 24.5 17t5.5 31q-3 15 -17 25t-31 5zM795.5 102q-16.5 -2 -27.5 -14t-10 -29q2 -17 14.5 -28t29.5 -9q17 1 27.5 14t9.5 30q-2 16 -14.5 27t-29 9zM129 629v-607h139v496h487v-99h138v208
q0 3 -2.5 5.5t-5 4t-7 3t-5.5 2.5l-36 17l-6 3l-6 3q-5 2 -12.5 5.5t-12.5 5.5q-20 9 -70.5 33.5t-73.5 34.5l-134 64q-18 8 -20.5 8.5t-16.5 -5.5l-119 -60l-12 -6l-12 -6l-191 -96l-7 -3q-7 -2 -11 -5t-4 -6zM309 239h85v-73h-85v73zM309 338h85v-72h-85v72z" />
    <glyph glyph-name="uniE60D" unicode="&#xe60d;" 
d="M512 817q144 0 258.5 -85.5t155.5 -219.5q57 -51 57 -128q0 -55 -31 -98.5t-81 -61.5q34 76 34 160q0 107 -52.5 197.5t-143 143.5t-197.5 53t-197.5 -53t-143 -143.5t-52.5 -197.5q0 -142 90.5 -251t227.5 -135q6 13 27 21t48 8q32 0 54.5 -11t22.5 -27t-22.5 -27
t-54.5 -11h-3q-143 1 -256.5 86.5t-154.5 218.5q-57 51 -57 128t57 128q41 134 155 219.5t259 85.5zM629 406q26 0 45 -18.5t19 -45t-19 -45.5t-45.5 -19t-45.5 19t-19 45.5t19 45t46 18.5zM604 376q9 0 15.5 -6t6.5 -15.5t-6.5 -15.5t-15.5 -6t-15.5 6t-6.5 15.5t6.5 15.5
t15.5 6zM388 406q27 0 46 -18.5t19 -45t-19 -45.5t-45.5 -19t-45.5 19t-19 45.5t19 45t45 18.5zM363 376q10 0 16 -6t6 -15.5t-6 -15.5t-15.5 -6t-15.5 6t-6 15.5t6 15.5t15 6zM723 227q3 6 9.5 7.5t12.5 -1.5t7.5 -9.5t-1.5 -12.5q-37 -65 -102 -102h-1q-64 -37 -138 -37
q-75 0 -139 37v0q-65 37 -102 102q-3 6 -1.5 12.5t7.5 9.5q14 8 22 -6q33 -57 90 -90t123 -33t122 33h1q57 34 90 90zM835 231q-15 74 -29.5 108t-55.5 82q-8 9 -30.5 29.5t-38 41t-27.5 49.5q-1 -19 5.5 -41.5t14.5 -38t16 -29t8 -14.5q-25 3 -66 5.5t-66 4.5t-61.5 9.5
t-64 19t-61.5 33.5t-65 54q2 -98 -40 -174t-101 -100q-18 56 -18 114q0 97 47.5 179.5t130 130t179.5 47.5t179 -47.5t130 -130t48 -179.5q0 -81 -34 -153z" />
    <glyph glyph-name="uniE613" unicode="&#xe613;" 
d="M941 491q-6 16 -19.5 27t-31.5 14l-228 33l-99 202q-7 16 -22.5 25t-34 9t-34 -9t-23.5 -25l-99 -202l-228 -33q-17 -3 -30.5 -14t-19.5 -27q-12 -35 15 -61l166 -164l-38 -226q-7 -38 26 -60q16 -11 36 -11q16 0 31 8l198 105l199 -105q14 -8 30 -8q20 0 37 11
q32 22 26 60l-39 226l167 164q27 26 15 61zM714 309q-3 -3 -6.5 -7t-8.5 -17.5t-2 -27.5q1 -9 5.5 -36t10 -58.5t10.5 -62t9 -50.5l3 -20l-198 105q-30 16 -61 0q-14 -8 -63.5 -34t-92.5 -49l-43 -22l39 227q6 28 -17 52q-166 162 -167 163l228 33q3 1 9 2t18.5 9.5
t19.5 22.5l99 202l99 -202q2 -3 5 -8t15 -14t28 -12q9 -1 36.5 -5t59 -8.5t62 -9t50.5 -7.5l20 -3zM714 309z" />
    <glyph glyph-name="uniE614" unicode="&#xe614;" 
d="M1017 627q-3 13 -16 25q-17 15 -43 15h-381h-2h-19h-480q-15 0 -29 -3.5t-25 -15.5q-16 -17 -16 -44v-259v-272q0 -16 4 -30t16 -25q17 -15 44 -15h494h2h22q0 -1 1 0h361q17 0 30.5 3.5t25.5 16.5q15 17 15 44v239v291q0 15 -4 30zM958 33h-371h-2h-514h-6
q-12 0 -20.5 8.5t-8.5 20.5v28h3h518h1h26h2h405v-25q0 -15 -8.5 -23.5t-24.5 -8.5zM991 209v-6h-6h-398h-1h-6h-6h-17h-1h-193h-327v6v395q0 33 33 33h488h2h20h379q33 0 33 -33v-395zM487 430h-335h-2q-6 0 -6 -7v-24q0 -5 1.5 -6.5t6.5 -1.5h167h168q5 0 6.5 1.5t1.5 6.5
v23q0 5 -1.5 6.5t-6.5 1.5zM152 467h131h134q4 0 5.5 1.5t1.5 5.5v25q0 7 -7 7h-266q-7 0 -7 -7v-24q0 -5 1.5 -6.5t6.5 -1.5zM319 346q0 5 -1 6.5t-7 1.5h-79h-81q-4 0 -5.5 -1.5t-1.5 -6.5v-12v-13q0 -6 6 -6h163q6 0 6 6v13v12z" />
    <glyph glyph-name="uniE615" unicode="&#xe615;" 
d="M191 5h5v-22h13v22h5q2 0 3 1.5t0 2.5l-11 21q-1 2 -3.5 2t-3.5 -2l-11 -21q-1 -1 0 -2.5t3 -1.5zM230 5h5v-22h13v22h5q2 0 3 1.5t0 2.5l-11 21q-1 2 -3.5 2t-3.5 -2l-11 -21q-1 -1 0 -2.5t3 -1.5zM187 -26h69v-13h-69v13zM294 -9v-20l-9 -1v-9h29v9l-10 1v20
q12 2 12 16v26h-34v-26q0 -14 12 -16zM446 5h5v-22h14v22h4q2 0 3 1.5t1 2.5l-12 21q-1 2 -3.5 2t-3.5 -2l-11 -21q-1 -1 0.5 -2.5t2.5 -1.5zM485 5h5v-22h14v22h4q2 0 3 1.5t1 2.5l-12 21q-1 2 -3.5 2t-3.5 -2l-11 -21q-1 -1 0 -2.5t3 -1.5zM443 -26h69v-13h-69v13zM550 -9
v-20l-10 -1v-9h29v9h1l-11 1v20q13 2 13 16v26h-34v-26q0 -14 12 -16zM702 5h4v-22h14v22h5q2 0 3 1.5t0 2.5l-11 21q-1 2 -3.5 2t-3.5 -2l-12 -21q0 -1 1 -2.5t3 -1.5zM738 6.5q1 -1.5 3 -1.5h4v-22h14v22h5q1 0 2.5 1.5t0.5 2.5l-11 21q-1 2 -3.5 2t-3.5 -2l-12 -21
q0 -1 1 -2.5zM698 -26h69v-13h-69v13zM805 -9v-20l-9 -1v-9h28v9h1l-10 1v20q12 2 12 16v26h-34v-26q0 -14 12 -16zM319 259h4v-22h14v22h5q1 0 2.5 1.5t0.5 3.5l-11 20q-1 3 -3.5 3t-3.5 -3l-12 -20q0 -2 1 -3.5t3 -1.5zM358 259h4v-22h14v22h5q1 0 2.5 1.5t0.5 3.5l-12 20
q0 3 -2.5 3t-3.5 -3l-12 -20q0 -2 1 -3.5t3 -1.5zM315 229h69v-14h-69v14zM410 261q0 -14 12 -16v-20h-9v-10h28v10h1h-10v20q12 2 12 16v26h-34v-26zM518 436h-268v-255h-127v-267h778v267h-127v255h-256zM530 411h88v-51h43v51h89v-219h-220v219zM274 411h88v-51h44v51h88
v-219h-220v219zM366 -62h-219v219h88v-52h43v52h88v-219zM622 -62h-220v219h88v-52h44v52h88v-219zM789 157h88v-219h-219v219h87v-52h44v52zM574 259h5v-22h13v22h5q2 0 3 1.5t0 3.5l-11 20q-1 3 -3.5 3t-3.5 -3l-11 -20q-1 -2 0 -3.5t3 -1.5zM613 259h5v-22h13v22h5
q2 0 3 1.5t0 3.5l-11 20q-1 3 -3.5 3t-3.5 -3l-11 -20q-1 -2 0 -3.5t3 -1.5zM570 229h70v-14h-70v14zM665 261q0 -14 13 -16v-20h-10v-10h29v10h-10v20q12 2 12 16v26h-34v-26zM0 614v-700h67v563h890v-563h67v700l-512 240zM901 534h-778v27h778v-27zM791 607h-558v27h558
v-27zM681 679h-338v27h338v-27z" />
    <glyph glyph-name="uniE616" unicode="&#xe616;" 
d="M637 284q-3 1 -6.5 3t-9 8t-8.5 14.5t-2 24t7 34.5q44 45 72.5 111.5t28.5 134.5q0 103 -59.5 160.5t-147.5 57.5t-147 -57.5t-59 -160.5q0 -68 28 -134.5t73 -112.5q7 -22 7 -37t-8.5 -25.5t-14 -14.5t-10.5 -6q-63 -23 -118 -52t-95 -67.5t-40 -74.5v-28
q0 -126 385 -126q383 0 383 126v28q0 37 -40.5 75.5t-97 67.5t-121.5 51zM637 284z" />
    <glyph glyph-name="uniE617" unicode="&#xe617;" 
d="M813 543q3 -13 -7.5 -20t-19.5 1q-6 4 -27 37l-103 150q-1 0 -24 -12l-149 -72q-2 0 -12.5 -5.5t-13.5 -5.5q3 -4 8 -12t5 -9q3 -3 7 -10t6 -9q2 -4 6.5 -10.5t6.5 -9.5q12 -18 13 -20l26 -40q29 -44 67 -96q18 -24 28 -35q16 -15 25 -19q6 -3 11 -4q19 -4 34 4t20 26
q2 10 1 23q-1 12 -6 25q2 1 5.5 4t4.5 3q2 2 6 5t5 3l146 109q2 -4 5.5 -12t7.5 -23q2 -8 2 -20q-1 -27 -18 -47q-5 -8 -94 -79l-42 -33q-26 -23 -66 -23q-12 -1 -20 2q-13 4 -18 7l-6 3q-9 5 -25 20q-15 14 -34 41q-33 45 -64 92l-31 47q-61 94 -62 97q-2 11 4 18
q2 3 45 24q186 90 190 91q9 2 15 -2q2 -1 12 -15q4 -5 9 -13l28 -41q6 -8 19 -27t18 -27q11 -15 19 -27q35 -50 37 -54zM651 563q15 4 21 -9t-7 -22q-5 -3 -15 -9.5t-22.5 -14.5t-16.5 -11q-20 -13 -30 -5q-7 5 -6 14q0 4 2 7.5t3.5 5t7.5 5t7 4.5q5 3 14.5 9t12.5 8
q26 17 29 18zM717 492q2 -3 0.5 -6.5t-2.5 -5.5t-4 -5t-5 -4t-5.5 -3.5t-4.5 -2.5l-44 -28q0 -1 -4 -3.5t-5.5 -3t-5 -1.5t-6.5 0t-6 4q-7 5 -7 14q0 3 1 6t4 5t4.5 3.5t6 4t5.5 3.5q53 34 57 35q7 2 13 -1.5t8 -10.5zM627 612q3 -13 -10 -21l-23 -13q-4 -2 -11 -6.5
t-11 -6.5q-6 -3 -12 -7q-8 -5 -12 -6q-8 -2 -14.5 3t-6.5 14q0 7 4.5 11t15.5 10q3 2 29 16q27 16 30 17q7 2 13 -1q6 -4 8 -10zM673 640q3 -11 -4.5 -17.5t-17.5 -5t-13 12.5q-3 10 6.5 17.5t20.5 2.5q6 -3 8 -10zM758 523q3 -11 -4.5 -18t-17.5 -5t-13 13q-1 6 2.5 12.5
t9.5 7.5l5 1q5 2 11 -1.5t7 -9.5zM704 557q-12 -3 -19 4t-4 16.5t15 12.5q7 2 13 -1.5t8 -10.5q1 -7 -2.5 -13t-10.5 -8zM127 374h174v-151h-174v151zM127 17h164q10 0 10 10v142h-174v-152zM338 17h165q10 0 10 10v142h-175v-152zM338 223h175v141q0 6 -2 8t-8 2h-165v-151
zM550 169h172v-152h-172v152zM127 576h174v-148h-174v148z" />
    <glyph glyph-name="uniE618" unicode="&#xe618;" horiz-adv-x="1131" 
d="M918 454q19 19 12 40.5t-33 25.5l-220 32q-4 1 -9.5 5t-7.5 7l-98 199q-12 24 -34.5 24t-34.5 -24l-99 -199q-1 -3 -6.5 -7t-9.5 -5l-220 -32q-26 -4 -33 -26t12 -40l159 -155q8 -8 6 -20l-37 -218q-4 -21 7 -34t28 -13q10 0 21 6l196 103q4 2 10.5 2t10.5 -2l196 -103
q11 -6 21 -6q17 0 28 13t8 34l-38 218q-2 12 7 20z" />
    <glyph glyph-name="uniE619" unicode="&#xe619;" 
d="M355 552l36 -21q69 23 147 22q26 0 53 -3q-59 31 -122 29q-54 -2 -114 -27zM758 354q-7 5 -15 11q-61 -21 -107 -73q-5 -41 20 -77l-139 -148h-202v-95h299v81l105 112q48 -20 91 0q35 61 36 125q-3 2 -8.5 6t-6.5 5q-9 -12 -26.5 -36t-26.5 -36q-48 10 -72 53
q37 50 52 72zM472 364h1v0q17 -5 32 -9q-3 -1 -5 -2q-6 -2 -13 -3q-14 -3 -29 0h-1v0v0h-1l-1 1v0h-1v0v0h-1v0v0h-1v0h-1v1v0h-1v0h-1v0v0h-1v1h-1v0h-1v0v0h-1v0v1h-1v0h-1v0v0h-1v0v1h-1v0h-1h1h1v1h1v0h1v0h1v0l1 1h1v0h1v0h1v1h1v0h1v0h1v0l1 1v0h1v0h1v0h1v0v1h1v0h1
v0h1v0l1 1v0h1v0h1v0h1v1h1v0h1v0v0h1v0v1h1v0h1v0v0h1v0v0h1v1v0v0h1v0v0h1v0v0zM515 339q-41 -20 -85 0h-1v0v1h-1v0h-1l-1 1v0h-1v0h-1v1v0h-1v0h-1v1v0h-1v0l-1 1h-1v0l-1 1h-1v0v1h-1v0h-1v1h-1v0h-1v1v0l-1 1q-28 -8 -41.5 12.5t0.5 40.5q15 -13 24.5 -13t17 7
t22 11.5t38.5 -0.5v0q23 5 37.5 0.5t22 -11.5t17.5 -7t24 13q14 -20 0.5 -40.5t-41.5 -12.5q-8 -6 -17 -10h-1zM185 198q26 12 54 23v-249h-54v226zM287 236q33 9 67 14v-79h182l-51 -42h-198v107zM755 126v-154h-62v91zM647 500q1 -35 -1 -43q-2 -7 -16 -18v-121v-9l-8 -6
q-78 -57 -154 -58q-78 0 -152 59l-7 5v9v121q-14 11 -16 18q-1 5 -1 21v31l1 13h16v10l-17 20q-8 83 32 130q37 43 111 53q-14 8 -14 18t13 17.5t31.5 7.5t31.5 -7.5t13 -17.5t-13 -17q65 -8 101 -40q49 -43 45 -129l66 -41l-16 -37q-23 7 -46 11zM602 590q-2 50 -31 76
q-34 30 -110 31q-75 -5 -106 -41q-22 -26 -24 -70q71 32 137 33q70 2 134 -29zM347 510l32 -19l17 -1q65 24 142 23q26 -1 54 -4v-181q-64 -44 -124 -45q-61 0 -121 45v182zM513 494q-7 0 -11 -6.5t-4 -15.5t4 -16t10.5 -7t11 7t4.5 16t-4.5 15.5t-10.5 6.5zM421.5 494
q-6.5 0 -10.5 -6.5t-4 -15.5t4 -16t10.5 -7t11 7t4.5 16t-4.5 15.5t-11 6.5z" />
    <glyph glyph-name="uniE61C" unicode="&#xe61c;" 
d="M512 -155q-93 0 -178 36.5t-146.5 98t-98 146.5t-36.5 178t36.5 178t98 146.5t146.5 97.5t178 36t178 -36t146.5 -97.5t97.5 -146.5t36 -178t-36 -178t-97.5 -146.5t-146.5 -98t-178 -36.5zM512 701q-108 0 -199.5 -53t-145 -144.5t-53.5 -199.5t53.5 -199.5t145 -144.5
t199.5 -53t199.5 53t145 144.5t53.5 199.5t-53.5 199.5t-145 144.5t-199.5 53zM428.5 51q-9.5 0 -16 7t-6.5 16.5t7 16.5l212 213l-212 213q-7 7 -7 16.5t6.5 16.5t16 7t16.5 -7l244 -246l-244 -246q-7 -7 -16.5 -7z" />
    <glyph glyph-name="uniE61D" unicode="&#xe61d;" 
d="M878 338h-328v326h-76v-326h-324v-76h324v-326h76v326h328v76zM8 806v-1012h1012v1012h-1012zM993 -176h-958v957h958v-957z" />
    <glyph glyph-name="uniE61E" unicode="&#xe61e;" 
d="M512 -30q113 0 208.5 55.5t150.5 151t55 207.5t-55.5 207.5t-151 151t-207.5 55.5t-207.5 -55.5t-151 -151t-55.5 -207.5t55 -207.5t150.5 -151t208.5 -55.5zM366 407l206 206q9 9 22.5 9t22.5 -9t9 -22t-9 -23l-184 -184l183 -182q9 -9 9 -22t-9 -22q-10 -9 -23 -9
t-21 9l-206 204q-9 9 -9 23q0 13 9 22z" />
    <glyph glyph-name="uniE61F" unicode="&#xe61f;" 
d="M512 798q-113 0 -208.5 -55.5t-150.5 -151t-55 -207.5t55.5 -207.5t151 -151t207.5 -55.5t207.5 55.5t151 151t55.5 207.5t-55 207.5t-150.5 151t-208.5 55.5zM658 361l-206 -206q-9 -9 -22.5 -9t-22.5 9t-9 22t9 23l184 184l-183 182q-9 9 -9 22t9 22q10 9 23 9t21 -9
l206 -204q9 -9 9 -23q0 -13 -9 -22z" />
    <glyph glyph-name="uniE621" unicode="&#xe621;" horiz-adv-x="1116" 
d="M110 631q-15 43 5.5 83.5t63.5 55t84 -6t55 -63.5l215 -654q-31 8 -62 3l-209 632q-7 20 -25.5 29.5t-38.5 3t-29.5 -25.5t-3.5 -39q4 -11 -1.5 -22t-17 -15t-22.5 1.5t-14 17.5zM959 118l-353 -116q19 -22 28 -50q1 -1 1 -2v-1l342 113q12 4 17.5 15t1.5 22.5t-15 17
t-22 1.5zM607 -57.5q15 -45.5 -7 -88.5t-67.5 -58t-88 6.5t-57.5 67t6.5 88.5t67 58t88.5 -6.5t58 -67zM551.5 -76q-7.5 23 -29 33.5t-44 3t-33.5 -28.5t-3.5 -44t29 -33.5t44.5 -3t33.5 28.5t3 44zM870 562l120 -364q1 -6 -1.5 -11.5t-8.5 -7.5l-377 -124q-6 -2 -11.5 1
t-7.5 8l-120 364q-2 6 1 11t9 7l377 125q6 2 11.5 -1t7.5 -8zM820 350l-129 71l-61 -133l41 -19l26 58l48 -145l45 15l-47 145l55 -31zM708 567l-77 233q-3 9 -12 6l-66 -22v-1l-1 1l-34 -12l28 -86l-39 -13l-28 86l-35 -11v-1h-1l-65 -21q-9 -3 -6 -12l76 -232q3 -9 12 -6
l242 79q9 3 6 12z" />
    <glyph glyph-name="uniE622" unicode="&#xe622;" 
d="M736 786q-93 0 -158.5 -65.5t-65.5 -158t65.5 -158t158.5 -65.5t158.5 65.5t65.5 158t-65.5 158t-158.5 65.5zM876 534h-112v-112h-56v112h-112v56h112v112h56v-112h112v-56zM876 534zM730 350h-12l-5 -26q-1 -9 -8 -15t-16 -6l-360 -27q-12 -1 -19.5 -9.5t-6.5 -19.5
t9 -18.5t19 -7.5h2l358 27q28 0 50.5 20t26.5 48l6 38q-22 -4 -44 -4zM730 350zM304 90q-22 0 -38 -16t-16 -38t16 -38t38.5 -16t38 16t15.5 38t-15.5 38t-38.5 16zM304 90zM277 593h243q4 29 15 55h-258q-11 0 -19 -8t-8 -19.5t8 -19.5t19 -8zM277 593zM676 90
q-23 0 -38.5 -16t-15.5 -38t15.5 -38t38 -16t38.5 16t16 38t-16 38t-38 16zM676 90zM728 170h-431q-8 0 -14.5 6.5t-7.5 15.5l-46 318l-25 148q-4 29 -26.5 49.5t-51.5 20.5h-34q-12 0 -20 -8t-8 -19.5t8 -19.5t20 -8h34q8 0 15 -7t8 -16l26 -148l45 -318q4 -29 26.5 -49
t51.5 -20h430q12 0 20 8t8 19.5t-8 19.5t-20 8zM728 170z" />
    <glyph glyph-name="uniE625" unicode="&#xe625;" 
d="M987 -47l-83 428q-9 48 -47.5 79.5t-87.5 31.5h-6v-104q26 -25 26 -62q0 -35 -25.5 -60.5t-61 -25.5t-61 25.5t-25.5 60.5q0 39 29 65v101h-248v-104q25 -25 25 -62q0 -35 -25 -60.5t-61 -25.5t-61 25.5t-25 60.5q0 39 28 65v101h-36q-51 0 -90 -33t-47 -83l-69 -428
q-10 -63 31.5 -111.5t105.5 -48.5h678q66 0 107 50.5t29 114.5zM336 268q24 0 41 17t17 41q0 26 -18 43v222q0 58 41.5 99.5t99.5 41.5h4q59 0 100.5 -41.5t41.5 -99.5v-222q-19 -17 -19 -43q0 -24 17 -41t41.5 -17t41.5 17t17 41q0 26 -19 43v222q0 91 -65 156t-156 65h-4
q-91 0 -156 -65t-65 -156v-222q-19 -17 -19 -43q0 -24 17.5 -41t41.5 -17z" />
    <glyph glyph-name="uniE626" unicode="&#xe626;" 
d="M595 336h83v-136h-83v136zM471 336h82v-136h-82v136zM346 336h83v-136h-83v136zM749 826h-503l-242 -435l248 -449h500l176 323l92 -115v221zM581 686l41 -12q-12 -36 -33 -76h192v-42h-211q-33 -62 -79 -124q-3 0 -4 4q-20 16 -31 21q82 100 125 229zM727 435l-33 -30
q-64 59 -118 99l31 27q63 -47 120 -96zM404 681h42v-288h-42v288zM281 649h41v-231h-41v231zM787 159h-550v41h68v175h414v-175h66v-41h2z" />
    <glyph glyph-name="uniE627" unicode="&#xe627;" 
d="M511.5 747q-90.5 0 -173.5 -35.5t-143 -95t-95 -142.5t-35 -174t35 -173.5t95 -142.5t143 -95.5t173.5 -35.5t173.5 35.5t143 95.5t95 142.5t35.5 173.5t-35 174t-95.5 142.5t-143 95t-173.5 35.5zM452 100h-1v0l-38 38l-179 180l38 37l179 -179l318 318l38 -38z
M512 -147q-91 0 -175 35q-80 34 -142 96t-96 142q-35 83 -35 174t35 174q34 81 96 142.5t142 95.5q84 36 175 36t174 -36q80 -34 142 -95.5t96 -142.5q35 -83 35 -174t-35 -174q-34 -80 -96 -142t-142 -96q-83 -35 -174 -35zM511.5 747q-90.5 0 -173 -35.5t-142.5 -95.5
t-95.5 -142.5t-35.5 -173.5t35.5 -173.5t95.5 -142.5t142.5 -95t173 -35t173.5 35t142.5 95t95 142.5t35.5 173.5t-35.5 173.5t-95 142.5t-142.5 95.5t-173.5 35.5zM451 99l-38 39l-180 180l39 38l179 -180l318 318l39 -38zM414 138l37 -37l355 355l-37 37l-318 -318
l-179 180l-38 -37z" />
    <glyph glyph-name="uniE628" unicode="&#xe628;" 
d="M986 143v-72q0 -8 -2 -13q0 -5 -2 -15q-1 -3 -3 -7.5t-2 -5.5q-4 -5 -9 -5h-34v1q0 48 -33.5 81.5t-81.5 33.5t-81.5 -33.5t-33.5 -81.5h-26q-38 0 -38 26v12v448q0 4 8 14.5t10 14.5q5 11 17 14q34 2 61 -3q34 -6 64 -16q33 -13 59 -31q30 -21 46 -45q32 -43 51 -100
q17 -54 23 -104q7 -46 7 -113zM906 282v3q-9 44 -23 84q-11 39 -41 71q-18 16 -39 24q-24 8 -41 10q-15 2 -17 1h-7q-3 0 -5 -1h-2q-13 0 -21 -9q-9 -9 -9 -18v-82q0 -51 2 -80v-2q0 -3 6.5 -9.5t12.5 -6.5h156h19q9 0 9 11v4zM563 25h-243q0 48 -33.5 81.5t-81.5 33.5
t-81.5 -33.5t-33.5 -81.5h-17q-15 0 -26 9q-10 10 -10 25v470v5v4q2 21 8 32q8 21 20 35v-2q37 48 99 48h266h3h15h15h63q26 0 43 -18.5t17 -45.5v-90v-51v-397q3 -8 -1.5 -16t-21.5 -8zM204.5 102q31.5 0 54.5 -23t23 -54.5t-23 -54t-54.5 -22.5t-54 22.5t-22.5 54
t22.5 54.5t54 23zM819.5 102q31.5 0 54 -23t22.5 -54.5t-22.5 -54t-54 -22.5t-54.5 22.5t-23 54t23 54.5t54.5 23z" />
    <glyph glyph-name="uniE629" unicode="&#xe629;" 
d="M512 145l-431 432l34 34l431 -431zM942 577l-431 -432l-34 35l431 431z" />
    <glyph glyph-name="uniE62A" unicode="&#xe62a;" horiz-adv-x="1025" 
d="M342 -43h118q12 0 20 9t8 22v271l-79 46l-95 -60v-257q0 -13 8.5 -22t19.5 -9v0zM0 254l384 243l22 14l23 -13l115 -68l308 282l-43 53l107 23l108 23l-35 -111l-36 -111l-41 50l-333 -304l-23 -22l-28 16l-120 70l-362 -228l-46 83v0zM97 -43h118q11 0 19.5 9t8.5 22
v212l-174 -110v-102q0 -13 8.5 -22t19.5 -9v0zM587 -43h118q11 0 19.5 9t8.5 22v380v5l-172 -157l-2 1v-229q0 -13 8.5 -22t19.5 -9v0zM832 -43h118q12 0 20 9t8 22v459l-70 86l-104 -95v-450q0 -13 8.5 -22t19.5 -9zM832 -43z" />
    <glyph glyph-name="uniE62B" unicode="&#xe62b;" 
d="M6 458q0 -40 26.5 -70.5t68.5 -40.5v-376h-63q-14 0 -23 -8.5t-9 -20.5t9 -20t23 -8h950q13 0 22.5 8t9.5 20t-9.5 20.5t-22.5 8.5h-63v376q41 10 68 40.5t27 70.5v29h-1014v-29zM639.5 343q52.5 0 89.5 33.5t37 81.5q0 -40 27 -70.5t68 -40.5v-376h-475v372
q53 0 90 33.5t37 81.5q0 -48 37 -81.5t89.5 -33.5zM354 347v-376h-190v376q42 10 68.5 40.5t26.5 70.5q0 -40 27 -70.5t68 -40.5zM893 744h-760l-127 -229h1014zM274 681l-64 -115q-4 -8 -14 -8q-4 0 -7 2q-6 2 -8 8t1 11l63 115q7 12 21 6q6 -3 8 -8.5t0 -10.5zM400 681
l-63 -115q-5 -8 -14 -8q-4 0 -7 2q-6 2 -8 8t1 11l63 115q7 12 21 6q6 -3 8 -8.5t-1 -10.5zM529 573q0 -6 -5 -10.5t-11.5 -4.5t-11 4.5t-4.5 10.5v114q0 6 4.5 10.5t11 4.5t11.5 -4.5t5 -10.5v-114zM711 560q-4 -2 -8 -2q-9 0 -14 8l-69 114q-3 5 -1.5 11t7.5 9q14 7 22 -6
l69 -115q3 -5 1 -10.5t-7 -8.5zM837 560q-3 -2 -7 -2q-10 0 -14 8l-64 115q-3 5 -1 10.5t8 8.5q14 6 22 -6l63 -115q3 -5 1 -11t-8 -8zM275 138v66q-16 9 -16 25q0 12 9.5 20t22.5 8t22.5 -8t9.5 -20q0 -16 -16 -25v-66q16 -8 16 -24q0 -12 -9.5 -20.5t-22.5 -8.5t-22.5 8.5
t-9.5 20.5q0 16 16 24zM133 802q0 12 9 20t22 8h697q14 0 23 -8t9 -20t-9 -20.5t-23 -8.5h-697q-13 0 -22 8.5t-9 20.5zM561 190l-22 20l89 81l23 -20zM561 109l-22 20l179 162l22 -20zM718 210l22 -20l-89 -81l-23 20z" />
    <glyph glyph-name="uniE62E" unicode="&#xe62e;" 
d="M887 294v18q5 2 17.5 -2t22.5 -9l10 -5l16 16q-11 24 -53.5 42t-78.5 24l-37 6l-86 228h94v96h-126l-57 -68l-97 -21l9 -28l102 15q5 -5 16 -67.5t19 -121.5l8 -59q-17 -11 -34.5 -34t-26.5 -42l-8 -18h-92q-20 16 -30 46t-11 52l-1 22h-351q0 -18 -9.5 -47.5
t-19.5 -49.5l-10 -20q17 -2 47 -31q-14 -28 -14 -60q0 -57 40.5 -97.5t97.5 -40.5q50 0 88 31.5t48 79.5h299q10 -48 48 -79.5t88 -31.5q57 0 97.5 40.5t40.5 97.5q0 37 -18 68.5t-48 49.5zM244.5 125q-21.5 0 -36.5 15t-15 36.5t15 36.5t36.5 15t36.5 -15t15 -36.5
t-15 -36.5t-36.5 -15zM814.5 125q-21.5 0 -36.5 15t-15 36.5t15 36.5t36.5 15t36.5 -15t15 -36.5t-15 -36.5t-36.5 -15zM459 459q0 -6 -4.5 -10t-10.5 -4h-313q-6 0 -10.5 4t-4.5 10t4.5 10.5t10.5 4.5h313q6 0 10.5 -4.5t4.5 -10.5z" />
    <glyph glyph-name="uniE62F" unicode="&#xe62f;" 
d="M521 437l263 374h150l-289 -407h202v-106h-261v-178h261v-107h-261v-225h-136v225h-260v107h260v178h-260v106h201l-288 407h150l263 -374h5z" />
    <glyph glyph-name="uniE631" unicode="&#xe631;" 
d="M864 673h-704q-13 0 -22 -9t-9 -22v-68h765v68q0 13 -9 22t-21 9zM864 673zM894 483v-355q0 -13 -9 -22t-21 -9h-704q-13 0 -22 9t-9 22v355h765zM417 387h-191v-59h191v59zM514 253h-288v-58h288v58zM513 387h-58v-59h58v59zM513 387z" />
    <glyph glyph-name="uniE634" unicode="&#xe634;" 
d="M992 780v-960h-960v960h960zM1024 812h-1024v-1024h1024v1024zM864 268h-704q-14 0 -23 9.5t-9 22.5t9 22.5t23 9.5h704q14 0 23 -9.5t9 -22.5t-9 -22.5t-23 -9.5z" />
    <glyph glyph-name="uniE637" unicode="&#xe637;" 
d="M930 697l-181 41q-10 3 -19 -2l-212 -97l-196 82q-11 4 -22 0l-210 -82q-19 -7 -19 -28v-576q0 -16 13 -25t28 -3l198 77l196 -82q6 -2 12 -2q7 0 13 3l15 7l-26 54l-2 -1l-196 82q-5 2 -11 2t-11 -2l-169 -66v511l179 70l196 -82q13 -5 25 1l214 98l148 -34v-514l-29 7
l-14 -30q-4 -7 -8 -15v-1l-5 -10l79 -19q15 -3 26 6t11 24v576q0 11 -6.5 19t-16.5 11zM299 582v-366q0 -5 3.5 -8.5t8.5 -3.5t8.5 3.5t3.5 8.5v366q0 5 -3.5 8.5t-8.5 3.5t-8.5 -3.5t-3.5 -8.5zM506 511v-184q0 -5 3.5 -8.5t8.5 -3.5t8.5 3.5t3.5 8.5v184q0 5 -3.5 8.5
t-8.5 3.5t-8.5 -3.5t-3.5 -8.5zM758 386v222q0 5 -3.5 8.5t-8.5 3.5t-8.5 -3.5t-3.5 -8.5v-222q0 -5 3.5 -8.5t8.5 -3.5t8.5 3.5t3.5 8.5zM674.5 327q-59.5 0 -101.5 -42t-42 -101q0 -39 19 -72l14 -28l27 -54l83 -169l114 230l10 21q10 17 15 35q5 19 5 37q0 59 -42 101
t-101.5 42zM674 141q-25 0 -42.5 17.5t-17.5 42.5t17.5 43t42.5 18t42.5 -18t17.5 -43t-17.5 -42.5t-42.5 -17.5z" />
    <glyph glyph-name="uniE639" unicode="&#xe639;" 
d="M884 34q51 0 87 36t36 87v532q0 51 -36 87t-87 36h-744q-51 0 -87 -36t-36 -87v-532q0 -51 36 -87t87 -36h1l-1 -205q0 -28 26 -38q8 -3 16 -3q18 0 30 13l219 233h453zM797 314q9 -14 4.5 -30.5t-19 -25t-31 -4.5t-25.5 19q-25 42 -87 71.5t-125 29.5t-125.5 -30
t-86.5 -72q-9 -15 -25.5 -19t-31.5 4.5t-19.5 24.5t4.5 31q39 66 122 104.5t162 38.5q78 0 161 -38t122 -104v0z" />
    <glyph glyph-name="uniE63B" unicode="&#xe63b;" 
d="M217 73q-43 -43 -42 -48q0 -3 16 -20l-122 -135l6 -6l140 117q17 -17 21 -17q5 -1 47 42q22 -11 49 -14.5t43 -2.5l15 1l-187 190q-9 -56 14 -107zM915 506l40 39l-188 191l-39 -40l60 -61l-61 -59l-92 93l-29 -27l33 -33l-428 -421l187 -190l428 421l32 -33l28 28
l-92 94l61 59zM791 424l-259 -258l259 258l-259 -258l-6 6l-6 6l-6 6l-6 6l-6 6l-6 6l-6 6l-6 6l-6 6l-7 6l-6 7l-6 6l-6 6l-6 6l-6 6l-6 6l-6 6l-6 6l-6 6l-6 6l-7 6l-6 6l-6 7l-6 6l-6 6l40 40l53 52l82 -82l15 15l-82 83l33 32l76 -76l15 15l-76 76l30 30l67 -67l15 15
l-67 67l57 58l6 -6l7 -6l6 -6l6 -6l6 -6l6 -7l6 -6l6 -6l6 -6l6 -6l6 -6l6 -6l7 -6l6 -6l6 -6l6 -6l6 -7l6 -6l6 -6l6 -6l6 -6l6 -6l6 -6l6 -6z" />
    <glyph glyph-name="uniE640" unicode="&#xe640;" 
d="M526 63l-88 -91q-18 -30 -40 -8l-386 384q-10 9 -10 22.5t10 23.5l92 94q9 9 22.5 9t23.5 -9l386 -387q16 -15 -1 -32zM1016 555l-586 -594q13 15 -12 24q-21 8 -26 0q-2 -3 4 -9l-98 91q-9 10 -8.5 16.5t9.5 15.5l580 592q10 9 23 9t23 -9l90 -91q10 -9 10 -22.5
t-10 -22.5h1z" />
    <glyph glyph-name="uniE643" unicode="&#xe643;" 
d="M273 300l432 431l34 -34l-431 -431zM705 -130l-432 431l35 34l431 -431z" />
    <glyph glyph-name="uniE649" unicode="&#xe649;" 
d="M513 134q-104 0 -177.5 73.5t-73.5 177.5t73.5 177.5t177.5 73.5t177.5 -73.5t73.5 -177.5t-73.5 -177.5t-177.5 -73.5zM513 595q-87 0 -148.5 -61.5t-61.5 -148.5t61.5 -148.5t148.5 -61.5t148.5 61.5t61.5 148.5t-61.5 148.5t-148.5 61.5zM513 703q-8 0 -14 6t-6 15v80
q0 8 6 14t14 6t14 -6t6 -14v-80q0 -9 -6 -15t-14 -6zM513 -54q-8 0 -14 6t-6 14v80q0 9 6 15t14 6t14 -6t6 -15v-80q0 -8 -6 -14t-14 -6zM273.5 604q-8.5 0 -14.5 6l-57 57q-6 6 -6 14.5t6 14.5t14.5 6t14.5 -6l57 -57q6 -6 6 -14.5t-6 -14.5t-14.5 -6zM809.5 68
q-8.5 0 -14.5 6l-57 57q-6 6 -6 14.5t6 14.5t14.5 6t14.5 -6l57 -57q6 -6 6 -14.5t-6 -14.5t-14.5 -6zM94 365q-8 0 -14 5.5t-6 14t6 14.5t14 6h80q9 0 15 -6t6 -14t-6 -14t-15 -6h-80zM932 365h-81q-8 0 -14 6t-6 14t6 14t14 6h81q8 0 14 -6t6 -14t-6 -14t-14 -6zM216.5 68
q-8.5 0 -14.5 6t-6 14.5t6 14.5l57 57q6 6 14.5 6t14.5 -6t6 -14.5t-6 -14.5l-57 -57q-6 -6 -14.5 -6zM752.5 604q-8.5 0 -14.5 6t-6 14.5t6 14.5l57 57q6 6 14.5 6t14.5 -6t6 -14.5t-6 -14.5l-57 -57q-6 -6 -14.5 -6z" />
    <glyph glyph-name="uniE64E" unicode="&#xe64e;" 
d="M243 499h89l-40 -222h101l39 222h90l14 80h-279l-14 -80v0zM677 378l-17 201h-101l50 -302h101l160 302h-101l-92 -201v0zM676 45h-323q-12 0 -20.5 -8.5t-8.5 -20t8.5 -20t20.5 -8.5h323q12 0 20 8.5t8 20t-8 20t-20 8.5v0zM990 780h-956q-16 0 -25 -9t-9 -25v-608
q0 -15 12.5 -24t29.5 -9h948q16 0 25 9t9 24v608q0 16 -9 25t-25 9v0zM974 172q0 -17 -17 -17h-890q-17 0 -17 17v541q0 17 17 17h890q17 0 17 -17v-541v0zM974 172z" />
    <glyph glyph-name="uniE64F" unicode="&#xe64f;" 
d="M884 99h-573q-10 0 -18 6.5t-10 16.5l-113 615h-126q-12 0 -20 8t-8 19.5t8 19.5t20 8h149q10 0 18 -6.5t10 -16.5l113 -615h550q12 0 20 -8t8 -19.5t-8 -19.5t-20 -8zM849 235h-557q-12 0 -20 8t-8 19.5t8 19.5t20 8h537l112 304h-601q-12 0 -20 8t-8 19.5t8 19.5t20 8
h640q15 0 23 -12t3 -25l-131 -359q-7 -18 -26 -18zM351.5 -192q-45.5 0 -78 32.5t-32.5 78t32.5 77.5t78 32t78 -32t32.5 -77.5t-32.5 -78t-78 -32.5zM351.5 -27q-22.5 0 -38.5 -16t-16 -38.5t16 -39t38.5 -16.5t38.5 16.5t16 39t-16 38.5t-38.5 16zM831 -192
q-46 0 -78 32.5t-32 78t32 77.5t78 32t78 -32t32 -77.5t-32 -78t-78 -32.5zM831 -27q-23 0 -39 -16t-16 -38.5t16 -39t39 -16.5t39 16.5t16 39t-16 38.5t-39 16z" />
    <glyph glyph-name="uniE658" unicode="&#xe658;" 
d="M475 353v394h-193v-396l102 86zM512 747v-44v-434l-129 118l-138 -116v472v4h-31q-67 0 -108 -41t-41 -108v-474v-68q41 39 112 39h298h484v652h-447zM66 -34v-1q1 -17 8 -33.5t22 -36t46 -31t75 -11.5h742v205h-782q-52 0 -81.5 -24.5t-29.5 -67.5zM66 -34z" />
    <glyph glyph-name="uniE65D" unicode="&#xe65d;" 
d="M655 386q-27 25 -44 41l-33 31q-14 13 -16 14q-24 23 -55 22t-53 -22q-2 -2 -17 -16t-33 -31q-16 -14 -45 -41q-26 -24 -49 -45q-70 -64 -131 -119v-174q0 -22 15 -33t41 -11h160h222h165q25 1 39.5 15.5t14.5 34.5v166q-83 77 -132 122q-23 21 -49 46zM609 158
q9 -1 14.5 -7t5.5 -15t-5.5 -15t-14.5 -7h-67v-37q-1 -30 -33 -30q-15 0 -23.5 7.5t-9.5 22.5v37h-67q-10 0 -15 7.5t-6 15.5q1 9 6 14.5t15 6.5h67v22h-67q-10 1 -15 7t-6 15q1 9 6 14.5t15 6.5h50l-47 82q-3 5 -6.5 11t-2.5 14q1 10 6.5 16t19.5 8q9 -1 15.5 -6t10.5 -11
l53 -97l59 98q4 6 10.5 10.5t15.5 5.5q5 0 9 -1q5 -1 8 -3.5t5.5 -7t3.5 -12.5q0 -10 -7 -19l-55 -88h52q9 -1 14.5 -6.5t5.5 -14.5t-5.5 -15t-14.5 -7h-67v-22h67v0zM609 158zM929 345l-22 22q-16 16 -41 40q-26 24 -54 52q-32 32 -60 59q-28 25 -61 58q-26 26 -54 52
q-9 9 -22.5 22t-18.5 17l-21 21q-28 26 -66.5 25.5t-71.5 -32.5q-4 -4 -31 -29q-25 -24 -64 -60q-34 -33 -81 -76q-22 -20 -81 -75q-40 -38 -65 -61q-27 -25 -32 -30q-14 -13 -15 -35.5t17 -38.5q15 -14 37 -13t35 11q5 4 26 24q18 16 52 47q33 32 64 61q29 26 67 62
q35 33 56 52q23 22 33 30q26 24 53 25t55 -25q7 -5 29 -27q20 -19 55 -52q59 -56 66 -63q39 -36 67 -63q11 -10 29 -27t25 -24q22 -21 26 -24q13 -11 35 -12t39 14q15 14 14 35t-19 38zM929 345z" />
    <glyph glyph-name="uniE65F" unicode="&#xe65f;" 
d="M948 682l-386 -386l376 -380l-50 -51l-377 380l-378 -378l-51 51l378 379l-384 387l51 51l384 -388l386 386z" />
    <glyph glyph-name="uniE677" unicode="&#xe677;" 
d="M300 748l456 -447l-456 -446l-35 34l421 412l-421 412z" />
    <glyph glyph-name="uniE67C" unicode="&#xe67c;" 
d="M432 101q-120 0 -204.5 84.5t-84.5 204t84.5 203.5t204.5 84t204.5 -84t84.5 -203.5t-84.5 -204t-204.5 -84.5zM933 -90l-245 244q97 102 97 242q0 96 -47 177t-128.5 128t-177.5 47t-177.5 -47t-128.5 -128t-47 -177t47 -177t128.5 -128t177.5 -47q114 0 207 67
l248 -247q10 -9 23 -9t22.5 9.5t9.5 22.5t-9 23z" />
    <glyph glyph-name="uniE682" unicode="&#xe682;" 
d="M210 342h604v-84h-604v84z" />
    <glyph glyph-name="uniE684" unicode="&#xe684;" 
d="M884 371.5q0 102.5 -50.5 190t-138 138t-190 50.5t-189.5 -50.5t-138 -138t-51 -190t51 -190t138 -138t189.5 -50.5t190 50.5t138 138t50.5 190zM840 372q0 -93 -47 -172q-93 7 -175 31.5t-144 60t-105.5 70.5t-79.5 75q19 41 48 76q35 -31 169 -37q86 0 189 -12.5
t141 -41.5q4 -25 4 -50zM830 453q-42 21 -122 32.5t-123.5 13t-77.5 1.5h-1q-124 6 -152 31q38 38 88 65t99 38t82 15t63 4q53 -34 90.5 -85.5t53.5 -114.5zM332 657q80 49 174 49q72 0 137 -30q-192 -14 -305 -126q-17 27 -6 107zM305 639q-7 -78 17 -107q-30 -34 -51 -75
q-34 40 -56 79q34 61 90 103zM224 192q-50 78 -53 170q33 2 64 -11q-16 -73 -11 -159zM172 386q3 65 30 124q24 -39 58 -78q-12 -27 -20 -58q-33 13 -68 12zM251 155q-10 101 6 183q67 -43 102 -155q2 -12 7.5 -28.5t24.5 -51.5t43 -58q-110 24 -183 110zM382 190
q-39 127 -119 173q6 26 15 49q37 -39 81.5 -74t105.5 -69.5t141.5 -59t170.5 -32.5q-46 -65 -117.5 -102.5t-153.5 -37.5q-11 0 -22 1q-21 12 -39.5 32.5t-29 38.5t-19 39.5t-10.5 28.5t-4 13z" />
    <glyph glyph-name="uniE687" unicode="&#xe687;" 
d="M791 542h-32h-68h-28q-13 0 -22.5 -9.5t-9.5 -23t9.5 -23t22.5 -9.5h28h68h32q14 0 23.5 9.5t9.5 23t-9.5 23t-23.5 9.5zM791 389h-32h-68h-28q-13 0 -22.5 -9t-9.5 -22.5t9.5 -23t22.5 -9.5h28h68h32q14 0 23.5 9.5t9.5 23t-9.5 22.5t-23.5 9zM973 705h-29h-130h-284h-6
h-23h-6h-124h-290h-29q-13 0 -22.5 -9.5t-9.5 -22.5t9.5 -22.5t22.5 -9.5h29h26v-189v-57v-267q0 -13 9.5 -22.5t23 -9.5t23 9.5t9.5 22.5v267v57v59h28h34h43h6h43h179h29v-137v-17v-162q0 -14 9 -23t23 -9h288v-35q0 -13 9 -22.5t22.5 -9.5t23 9.5t9.5 22.5v267v57v189h26
h29q13 0 22.5 9.5t9.5 22.5t-9.5 22.5t-22.5 9.5zM505 576h-179h-43h-6h-43h-34h-28v65h199h124h6h23h6h4v-65h-29zM854 452v-57v-169h-257v131v17v267h217h40v-189z" />
    <glyph glyph-name="uniE688" unicode="&#xe688;" 
d="M317 418h392v-44h-392v44zM317 418zM317 222h240v-44h-240v44zM317 222zM796 -63h-566q-18 0 -34 7t-28 19t-19 28t-7 34v589q0 17 7 34q7 15 19 27t28 19t34 7h85v-44h-85q-18 0 -31 -12.5t-13 -30.5v-589q0 -18 13 -31t31 -13h566q18 0 30.5 13t12.5 31v589
q0 18 -12.5 30.5t-30.5 12.5h-86v44h86q17 0 33 -7t28 -19t19 -27q7 -17 7 -34v-589q0 -18 -7 -34t-19 -28t-28 -19t-33 -7zM796 -63zM730 570h-435v142q0 22 16 38t38 16h56q16 30 44.5 48t63 18t63 -18t44.5 -48h56q22 0 38 -16t16 -38v-142zM338 614h349v98q0 4 -3.5 7
t-7.5 3h-86l-5 15q-8 23 -28 37t-44.5 14t-44.5 -14t-27 -37l-6 -15h-86q-4 0 -7.5 -3t-3.5 -7v-98zM338 614z" />
    <glyph glyph-name="uniE6A3" unicode="&#xe6a3;" 
d="M286 179l-46 -13q-9 -2 -14 -10.5t-2.5 -18t11 -14.5t17.5 -2l46 12q9 3 14 11.5t2.5 17.5t-11 14t-17.5 3zM342 42l-33 -33q-7 -7 -7 -17t6.5 -16.5t16.5 -6.5t17 6l33 34q7 7 7 16.5t-7 16.5t-16.5 7t-16.5 -7zM792 161l-47 12q-10 2 -19 -3t-11.5 -14t2.5 -17.5
t15 -11.5l47 -12q10 -3 19 2t11.5 14.5t-2.5 18t-15 11.5zM685 36q-7 7 -17 7t-17.5 -7t-7.5 -17t8 -17l34 -33q7 -7 17.5 -7t17.5 7t7 16.5t-7 16.5zM527.5 32q-9.5 0 -16.5 -7t-7 -17v-47q0 -9 7 -16t16.5 -7t16.5 7t7 16v47q0 10 -7 17t-16.5 7zM551 598v1v212
q0 8 -6.5 14.5t-16.5 6.5t-17 -6.5t-7 -14.5v-211q-94 -4 -175 -56t-128.5 -138.5t-47.5 -185.5v-22h188q11 -60 60.5 -100.5t114.5 -40.5t114.5 40.5t60.5 100.5h188v22q0 145 -95.5 254.5t-232.5 123.5zM516 102q-47 0 -83 27t-46 69h258q-10 -42 -46 -69t-83 -27z
M198 243q9 129 101.5 220.5t216.5 91.5t216.5 -91.5t101.5 -220.5h-636z" />
    <glyph glyph-name="uniE6BC" unicode="&#xe6bc;" 
d="M952 17q4 -11 6 -30q2 -17 2 -35.5t-2 -34.5q-3 -16 -8 -24q-4 -5 -21 -10q-18 -6 -43 -10q-22 -4 -57 -9q-32 -4 -63 -6q-32 -3 -61 -5q-30 -1 -51 -1t-51 1q-29 2 -60 5q-22 2 -61 6q-31 3 -56 7q-26 4 -42 8q-18 4 -22 7q-7 6 -12 37q-4 32 3 80q4 29 23 43
q18 14 43 23q26 9 51 15q26 7 46 20q17 11 25 20t12 18t4 18q0 8 -1 23q-1 17 -12 28q-12 10 -23 19q-6 6 -11 15.5t-9 19.5q-3 11 -7 24q-6 2 -10 5q-5 4 -10 11t-9 20q-5 12 -4 23t5 18q3 9 9 16q0 29 3 58q4 24 11 52q8 27 24 50q14 21 32 34.5t36 20.5q19 8 37.5 10.5
t35.5 2.5q45 0 81 -19q35 -18 52 -39q20 -25 29 -54t14 -55q4 -30 3 -61q5 -4 8 -10q3 -5 5 -13.5t1 -20.5q-2 -16 -7 -26q-6 -10 -11 -15q-6 -6 -14 -8q-4 -13 -7 -24q-4 -10 -9 -19.5t-12 -14.5q-8 -7 -13 -10l-10 -10q-4 -4 -7 -10.5t-5 -15.5q-2 -12 -2 -23q1 -13 6 -24
q6 -12 17 -22q13 -11 34 -19q18 -8 41 -13q22 -6 44 -14q20 -8 36.5 -20.5t23.5 -32.5zM479 181q-2 -10 -4 -15q-3 -6 -13 -12q-23 -14 -49 -23q-28 -9 -52 -19q-24 -11 -42 -28.5t-23 -49.5q-2 -10 -2 -19q0 -6 -1 -17q-2 -2 -2 -3l-2 -3q-40 3 -70 6q-33 3 -65 8
q-30 4 -51 9q-20 4 -25 9q-8 6 -12 37t3 81q4 27 22 42q19 15 44 23q26 9 51 15q26 8 46 20q16 10 25 19q8 9 12 19q3 9 3 19t-1 21q-1 18 -12 28q-11 11 -22 21q-7 4 -12 14t-9 20q-3 10 -7 23q-5 2 -11 6q-3 3 -9 11q-5 7 -9 19q-5 13 -4 23q1 12 5 20q3 9 9 16q0 28 3 57
q4 24 12 51.5t24 49.5q14 22 31.5 35t36.5 21q17 7 36 10t37 3q44 0 80 -19q35 -18 53 -40q12 -15 15 -28q3 -15 8 -30q-17 -10 -36 -28q-19 -20 -33 -39q-18 -25 -27 -55q-9 -31 -13 -56q-4 -31 -4 -62q-8 -8 -11 -18q-4 -9 -5 -21q0 -12 4 -26q4 -15 10 -23q5 -8 9 -12
q6 -6 11 -7q4 -15 7 -27q4 -11 9 -22t12 -16l9 -9q4 -4 6 -7t2.5 -8t2.5 -14z" />
    <glyph glyph-name="uniE6C4" unicode="&#xe6c4;" 
d="M513 -60q-91 0 -173.5 35t-142.5 95t-95 142.5t-35 173.5t35 173.5t95 142.5t142.5 95t173.5 35t173.5 -35t142.5 -95t95 -142.5t35 -173.5t-35 -173.5t-95 -142.5t-142.5 -95t-173.5 -35zM513 776q-106 0 -196 -52t-142.5 -142t-52.5 -196t52.5 -196t142.5 -142.5
t196 -52.5t196 52.5t142.5 142.5t52.5 196t-52.5 196t-142.5 142t-196 52zM639.5 148q-8.5 -8 -20 -8t-19.5 8l-214 213q-9 10 -7 25q-2 15 7 24l214 214q8 8 19.5 8t20 -8t8.5 -19.5t-9 -19.5l-198 -199l198 -199q9 -8 9 -19.5t-8.5 -19.5z" />
    <glyph glyph-name="uniE6CC" unicode="&#xe6cc;" 
d="M791 330h-249v249q0 13 -9 22t-22 9t-22 -9t-9 -22v-249h-249q-13 0 -22 -9t-9 -22t9 -22t22 -9h249v-249q0 -13 9 -22.5t22 -9.5t22 9.5t9 22.5v249h249q13 0 22.5 9t9.5 22t-9.5 22t-22.5 9zM791 330z" />
    <glyph glyph-name="uniE6D8" unicode="&#xe6d8;" 
d="M788 -11v1h-552v-1q-11 0 -18 -7t-7 -17.5t7 -18t18 -7.5h3h546h3q11 0 18 7.5t7 18t-7 17.5t-18 7zM835 830h-646q-51 0 -87 -36t-36 -87v-500q0 -51 36 -87t87 -36h646q51 0 87 36t36 87v500q0 51 -36 87t-87 36zM907 207q0 -30 -21 -51t-51 -21h-646q-30 0 -51 21
t-21 51v500q0 30 21 51.5t51 21.5h646q30 0 51 -21.5t21 -51.5v-500z" />
    <glyph glyph-name="uniE6EC" unicode="&#xe6ec;" 
d="M512 603q-106 0 -181 -75t-75 -181t75 -181t181 -75t181 75t75 181t-75 181t-181 75zM512 183q-68 0 -116.5 48t-48.5 116t48.5 116.5t116.5 48.5t116.5 -48.5t48.5 -116.5t-48.5 -116t-116.5 -48zM841 603q-15 0 -25.5 -10.5t-10.5 -25.5t10.5 -26t25.5 -11t26 11t11 26
t-11 25.5t-26 10.5zM951 713h-200l-62 94q-11 16 -31 16h-292q-20 0 -31 -16l-62 -94h-200q-30 0 -51.5 -21.5t-21.5 -51.5v-585q0 -30 21.5 -51.5t51.5 -21.5h878q30 0 51.5 21.5t21.5 51.5v585q0 30 -21.5 51.5t-51.5 21.5zM73 55v585h220q19 0 30 16l62 94h254l62 -94
q11 -16 30 -16h220v-585h-878z" />
    <glyph glyph-name="uniE6F9" unicode="&#xe6f9;" 
d="M367 184h-149v-50h149v50zM218 358v-50h303v50h-303zM516 880h-149v-50h149v50zM93 -64q-10 0 -17.5 7t-7.5 17v846q0 10 7.5 17t17.5 7h119q30 -10 30 -49q1 -24 19.5 -36.5t36.5 -13.5h19h249q2 0 7 0.5t17 3.5t22 8t18.5 17t9.5 28q3 33 30 42h119q11 0 18 -7t7 -17
v-258h50v282q0 21 -14.5 35.5t-35.5 14.5h-149q-3 1 -8 1.5t-18 -0.5t-23 -5t-18 -16t-8 -30q0 -42 -40 -49h-210q-48 6 -48 49q0 17 -7.5 28.5t-18.5 15.5t-22 6t-19 1l-7 -1h-150q-20 0 -34.5 -14.5t-14.5 -35.5v-894q0 -21 14.5 -35.5t34.5 -14.5h242v50h-217zM665 532
h-447v-50h447v50zM431 125l162 -155l290 276l-162 155zM843 517l-81 -78l162 -154l81 77zM343 -114l203 38l-162 155z" />
    <glyph glyph-name="uniE728" unicode="&#xe728;" 
d="M512 800q-104 0 -199 -40.5t-163.5 -109t-109 -163.5t-40.5 -199t40.5 -199t109 -163.5t163.5 -109t199 -40.5t199 40.5t163.5 109t109 163.5t40.5 199t-40.5 199t-109 163.5t-163.5 109t-199 40.5zM562 -7q0 -11 -7.5 -18.5t-18.5 -7.5h-77q-10 0 -17.5 7.5t-7.5 18.5
v76q0 11 7.5 18.5t17.5 7.5h77q11 0 18.5 -7.5t7.5 -18.5v-76zM689 345q-11 -16 -63 -56l-33 -23q-28 -22 -35 -42q-2 -8 -4 -25q0 -5 -4 -10t-11 -5h-83q-17 0 -16 16q3 62 19 80q12 15 35 33.5t40 29.5l17 11q14 11 23 24q20 28 20 50q0 30 -18 55.5t-66 25.5
q-47 0 -67 -31q-15 -24 -18 -45q-3 -17 -17 -17h-81q-11 0 -16 5.5t-4 11.5q9 99 80 144q48 31 118 31q92 0 153 -44t61 -130q0 -48 -30 -89z" />
    <glyph glyph-name="uniE736" unicode="&#xe736;" 
d="M760 371v103q0 5 -0.5 14t-5 34t-13 48t-26.5 50.5t-42.5 47.5t-64.5 34t-89.5 14t-89.5 -13.5t-64.5 -34.5t-42.5 -47t-26 -51.5t-13 -47t-6 -34.5v-14v-103h-104v-484h691v484h-104zM553 104v-113h-69v113q-34 20 -34 59q0 29 20 49.5t48.5 20.5t49 -20.5t20.5 -49.5
q0 -39 -35 -59zM691 371h-345v103q0 14 2 29.5t12.5 43t27.5 48t51 36.5t79.5 16t80 -16t51.5 -36.5t27 -48t12 -43t2 -29.5v-103z" />
    <glyph glyph-name="uniE73A" unicode="&#xe73a;" horiz-adv-x="1025" 
d="M753 341l-30 90q-2 4 -5 8q-1 -16 -12 -27t-27 -12h-15h-1q-20 0 -40 2q0 -4 1 -7q3 -8 11 -12t16 -1l39 15l94 -273q25 27 60 39q23 8 47 8q37 0 69.5 -18t52.5 -49q26 1 -6 42q-48 64 -136 63q-4 10 -7 21q-28 77 -111 111zM565 753v-1q1 -10 3.5 -25.5t2.5 -22.5
q0 -12 -5 -21l-2 -2q-15 -8 -36 -8q-11 0 -34 3q-15 2 -28 6q21 -26 53 -34q38 -8 71 12.5t41 57.5q8 33 -7 64q-37 -5 -51 -15q-8 -6 -8 -14zM417 557v1q-8 15 -2 31.5t22 23.5q8 4 17 4q27 0 38 -25q1 -1 2 -3q3 -6 7 -13q8 -12 17 -23q6 31 -5.5 58t-35.5 33
q-30 7 -61.5 -11t-46.5 -60q-21 -64 -26 -112.5t3 -118.5q12 -65 73 -72h1l157 -25l59 -150q6 -15 19.5 -23.5t28.5 -8.5q10 0 19 3q20 8 29 28t1 40l-70 177q-11 28 -41 32l-130 20q-1 40 7 93q-13 11 -25 23q-38 37 -57 78zM663 408h1h14q14 1 23.5 11t8.5 24t-11 23
t-24 9q-6 -1 -11 -1q-79 0 -137 58q-19 18 -33 40q-4 7 -7 13q-2 2 -2 3v1q-6 12 -19 17t-25.5 -0.5t-17.5 -18.5t1 -26q20 -41 56 -77q77 -76 183 -76zM310 295v258q0 10 -6.5 16.5t-15.5 6.5h-263q-9 0 -15.5 -6.5t-6.5 -16.5v-258q0 -10 6.5 -16.5t15.5 -6.5h263
q9 0 15.5 6.5t6.5 16.5zM392.5 66.5q-16.5 48.5 -62.5 71t-94.5 6t-71 -62.5t-6 -94.5t62 -71t94.5 -6t71.5 62.5t6 94.5zM291 -19.5q-19 -6.5 -37.5 2t-25 28t2.5 37.5t28.5 24.5t37.5 -2.5t24.5 -28t-2.5 -37t-28 -24.5zM826 348q17 0 23.5 32t0 63.5t-23.5 31.5
q-26 0 -44.5 -18.5t-18.5 -44.5t18.5 -45t44.5 -19zM748 48h-265q-28 56 -34 124q12 4 12 16v46q0 7 -5 11.5t-11 4.5h-339q-7 0 -12 -4.5t-5 -11.5v-46q0 -7 5 -12t12 -5h2q-46 -112 -46 -173h72q-10 48 12 92q26 54 83 73q23 8 46 8q47 0 84.5 -27t52.5 -71q13 -37 5 -75
h29h69h234q-5 25 -1 50zM850.5 143.5q-48.5 -16.5 -71 -62.5t-6 -94.5t62.5 -71t94.5 -6t71 62.5t6 94.5t-62.5 71t-94.5 6zM906.5 -19.5q-19.5 -6.5 -37.5 2t-24.5 28t2.5 37.5t28 24.5t37 -2.5t24.5 -28t-2 -37t-28 -24.5zM634 791q-3 19 -12 36q-26 49 -81 56q-7 1 -14 1
q-40 0 -71 -26.5t-36 -67.5q-1 -7 -1 -14q0 -10 2 -19q6 -35 22 -51q17 -17 52 -22q22 -3 33 -3q18 0 31 7q4 7 4 16q0 6 -2.5 21.5t-3.5 26.5v1q0 12 11 20q9 7 24 11q16 5 42 7z" />
    <glyph glyph-name="uniE7A5" unicode="&#xe7a5;" 
d="M873 629l-115 115l-247 -245l-245 245l-115 -115l245 -245l-245 -245l115 -115l245 245l247 -245l115 115l-247 245z" />
    <glyph glyph-name="uniEB73" unicode="&#xeb73;" 
d="M961 208v1v0l-132 316v3v53q0 10 -10 10h-249v101q0 9 -10 9h-90q-10 0 -10 -9v-101h-255q-4 0 -7 -2.5t-3 -7.5v-53v-1v-2l-133 -316q0 -28 42.5 -48t102.5 -20q58 0 100 19.5t44 47.5v1v0l-130 310h239v-543h-120q-9 0 -9 -10v-51q0 -10 9 -10h338q10 0 10 10v51
q0 10 -10 10h-108v543h232l-130 -310q0 -28 42 -48t102 -20q59 0 101 19.5t44 47.5zM124 249l83 198l83 -198h-166zM816 447l83 -198h-165z" />
    <glyph glyph-name="uF001F" unicode="&#xf001f;" 
d="M637 80l-75 102q-8 11 -22.5 14t-27.5 -3l-70 -36q-20 -12 -51.5 20t-50.5 69q-23 42 -31 83.5t9 55.5l73 39q12 6 17 19.5t0 25.5l-50 115q-6 12 -19.5 18t-27.5 2l-121 -35q-13 -4 -21 -20t-6 -31q-1 -6 -0.5 -16t4.5 -42t12.5 -66t28 -84.5t46.5 -99.5
q20 -36 43 -69.5t44 -58t41 -45.5t36.5 -35t29 -24t19.5 -14l7 -5q14 -10 35.5 -10.5t28.5 7.5l92 76q11 9 13 23t-6 25zM495 288h51q21 -1 22 -18q-1 -17 -20 -17h-94q-21 0 -21 17q-1 5 6 14q13 14 17 18q36 36 53 59q9 12 9 25q-2 18 -19 20q-18 0 -25 -23
q-7 -20 -19 -19q-21 0 -21 19q6 52 66 59q59 -4 62 -54q0 -29 -49 -81q-14 -15 -18 -19zM672 294h-68q-19 0 -20 15q-1 6 4 12l63 106q7 15 28 15q32 -2 33 -33v-81h5q17 -2 19 -17q-2 -16 -19 -17h-5v-23q0 -18 -20.5 -18t-19.5 18v23zM672 328v73h-1l-38 -73h39zM437 572
q57 29 123 29q104 0 178 -69.5t73 -167.5q0 -67 -37.5 -123t-98.5 -86q-1 -1 -2.5 -2t-4.5 -4.5t-5 -7t-1.5 -8.5t3.5 -10q5 -9 13.5 -11.5t14.5 -0.5l5 3q74 36 118.5 103t45.5 147q0 117 -88 200.5t-214 83.5q-78 0 -147 -35q-1 0 -2.5 -1t-5 -4.5t-5.5 -7t-1.5 -9
t4.5 -10.5q6 -9 14.5 -11.5t13.5 0.5z" />
  </font>
</defs>
</svg>
